<svg id="Layer_1" xmlns="http://www.w3.org/2000/svg" viewBox="0 0 122.3 122.3"><style>.st0{fill:#0773b8}.st1{fill:#fff}</style><circle class="st0" cx="61.1" cy="61.1" r="61.1"/><path class="st1" d="M66.2 46.2L35.3 33.3c-.6-.3-1-1-.7-1.7l2.3-5.6c.3-.6 1-1 1.7-.7l30.9 12.9c.6.3 1 1 .7 1.7l-2.3 5.6c-.3.7-1.1 1-1.7.7zM51.1 82.7L20.2 69.8c-.6-.3-1-1-.7-1.7l2.3-5.6c.3-.6 1-1 1.7-.7l30.9 12.9c.6.3 1 1 .7 1.7L52.7 82c-.2.7-1 1-1.6.7zM36.937 37.37L62.59 48.084l-9.326 22.332L27.61 59.702zM64.2 57.9l-3 6.8s2.1 3.1 15.9 9.8 14.2 7.9 18.3 9.2 10.7.8 12.4-3.9c1.7-4.7-2.9-9.9-8.7-11.7-5.8-1.9-24.4-8-24.4-8s-7.1-2.5-10.5-2.2z"/></svg>