<svg id="Layer_1" xmlns="http://www.w3.org/2000/svg" viewBox="0 0 122.3 122.3"><style>.st0{fill:#0773B8;} .st1{fill:#FFFFFF;}</style><circle class="st0" cx="61.1" cy="61.1" r="61.1"/><path class="st1" d="M40.7 81.3h60.5s8.6-1.9 8.6-9.4c0-7.6-4.7-9.9-6.6-9.9 0 0 3.4-9.4-5.4-14.5s-14.7 0-14.7 0-4.2-11.9-16.7-8.3C54 42.8 56 54.7 56 54.7s-7.4-4.9-13.5 4.4c0 0-9.8-1.5-12.5 8.1s6.8 14.1 10.7 14.1z"/><path class="st1" d="M26.2 68.5h-5.7s-8.8-.9-8.8-8.6 7.2-9.8 10.3-8.4c0 0 1.5-6.1 9.8-4.7 0 0-.3-7.6 6.7-9.9 7.1-2.4 12.8 2.5 13.8 6.6 0 0 2.7-.7 3.7-.2 0 0-3.2 4-3 7.9 0 0-7.6-1.5-11.6 4.9-.1-.1-12.9-.6-15.2 12.4z"/></svg>