<svg id="Layer_1" xmlns="http://www.w3.org/2000/svg" viewBox="0 0 122.3 122.3"><style>.st0{fill:#0773b8}.st1{fill:#fff}</style><circle class="st0" cx="61.1" cy="61.1" r="61.1"/><path class="st1" d="M6.6 72.3s.3-4.4 1.5-4.4 2-.5 2.7-2.4c.7-1.9 5.2-2.2 6.4-2.2l5.4-3.5h1.3s.5-2.7 2-3.2 1.9-1.3 2.4-.7c.5.7 1.3 1.9 3.2-.3 1.9-2.1 2.7-1.4 3.7-1.4s2.2-3.7 4.2-3.4c0 0 .5-4 1.9-4 1.3 0 43.3 1.7 69.4-1.9 0 0 .3 1.3 1.3 2.3 1 .9 2.1 3 2.1 4.5l-.3.2s-.1-1.6-.6-1.9c-.5-.3-1.3-.9-1.3-.9l.7 1.3s-.4.3-1.1-.3c-.7-.6-1.2-1.7-1.5-1.5l-.9.6s1.2.6 1.4 1.1c.2.5 0 .9 0 .9h-1.7v.5s-.4.2-.8-.1c-.4-.3-.8-.2-.7.1.1.3-.3 1.2-.6 1.2-.4 0-1.7.9-2.5 0s-.8-2.4-1.3-2.4-.8.4-.6 1.1.5 1 .7 1.9c.2.9.1 1.6.6 1.6s1 0 1.8-.3 2.2-.5 2.4-.4c.2.1.7 1.1.9.8.2-.3.7-1.3 1.6-1.4s1.5.1 1.5.8c0 .7-.8 1.3-.6 2s.8 1.2.5 1.6c-.3.3.3.6.3.6s.5-1 .5-2.1-.2-1.5.4-1.6c.5-.1 1.5-.1 1.5-.6s.4-.9.8.1c.4 1.1 1.2 3.9.4 4.6-.8.8-1.3.3-1.4.1-.1-.3-.8.3-.7.9 0 .6-1.9 3.5-2.7 3.6s-2.1-.9-2.4-.8c-.2.1-.6.1-.6.1l-.5-.8-.3.7-1-.1s-.3-.9-.5-.9c-.3 0 .5-.6.5-.6s-.4-.8-.8-.5c-.4.3-.6 1.4-.4 1.7.3.3-2.6.2-3.2-.1-.6-.3-2.2-1.2-2.2-.8 0 .3-.2 1.1 2.6 1.9 2.7.8 4.2 1.6 4.2 2.2 0 .6-.5 1-.8.8-.3-.2-.5.5-.2 1.1s-.7 1.8-1.1 1.8c-.4 0-1.6.9-2.5.1-.9-.8-1.7-.8-1.7-.8s-.4.9 1.6 2.4 3.9-.7 3.9-.7l.6.3s.3-1.2.8-1.2.3-1.1.7-.6c.4.5 0 1.4 0 1.4s-.5.7 0 .8c.5 0 1.3-1.7 1.6-1.3.3.4-.3 1.8-.5 2-.2.2-2 2.4-2 2.4s-1.4-1-1.5-.7-.3.7-.3.7l-.4-1-.8 1.3s-1.9-.5-2.7 0c-.8.5-1.6.5-1.9.3s-2.6 2.4-2.6 2.4-.4-.2-.8 0 .1.6-.3.8c-.4.3-5.9 3.9-7 10 0 0-5.1 0-7.1 1.1L66.1 74.8H52s.2-3.7-1.7-4l-1.3-.1-.8-1.3s-13.8-.8-16.5-.2c-2.7.6-4.8 2.1-4.8 2.1s-3-.3-4 1H6.6z"/></svg>