<svg class="svg-clean-air-carolina" xmlns="http://www.w3.org/2000/svg" viewBox="0 0 132.2 67.1"><title>Go to home page</title><path class="st0" d="M19.4 24.3c-1.1.6-3.4 1.1-6.3 1.1-6.7 0-11.8-4.2-11.8-12.1C1.3 5.8 6.4.8 13.8.8c3 0 4.8.6 5.7 1.1l-.7 2.5c-1.2-.6-2.8-1-4.8-1-5.6 0-9.3 3.6-9.3 9.8 0 5.8 3.4 9.6 9.2 9.6 1.9 0 3.8-.4 5-1l.5 2.5zM23.1 0h3.1v25.1h-3.1V0zm10.1 17.1c.1 4.2 2.8 5.9 5.9 5.9 2.2 0 3.6-.4 4.7-.9l.5 2.2c-1.1.5-3 1.1-5.7 1.1-5.3 0-8.4-3.5-8.4-8.6 0-5.2 3-9.2 8-9.2 5.6 0 7.1 4.9 7.1 8.1 0 .6-.1 1.1-.1 1.5h-12v-.1zm9.1-2.2c0-2-.8-5.1-4.3-5.1-3.1 0-4.5 2.9-4.8 5.1h9.1zm16.4 10.2l-.3-2.1h-.1c-1 1.3-2.8 2.5-5.2 2.5-3.5 0-5.2-2.4-5.2-4.9 0-4.1 3.7-6.4 10.3-6.4v-.4c0-1.4-.4-4-3.9-4-1.6 0-3.3.5-4.5 1.3L49.1 9c1.4-.9 3.5-1.5 5.6-1.5 5.2 0 6.5 3.6 6.5 7V21c0 1.5.1 2.9.3 4.1h-2.8zm-.5-8.7c-3.4-.1-7.3.5-7.3 3.9 0 2 1.3 3 2.9 3 2.2 0 3.6-1.4 4.1-2.9.1-.3.2-.7.2-1l.1-3zm8-3.8c0-1.8 0-3.2-.1-4.6h2.8l.2 2.8h.1c.8-1.6 2.8-3.2 5.7-3.2 2.4 0 6 1.4 6 7.3v10.2h-3.1v-9.9c0-2.8-1-5.1-4-5.1-2.1 0-3.6 1.5-4.2 3.2-.1.4-.2.9-.2 1.5v10.3h-3.1V12.6h-.1zm31.1 5l-2.5 7.5h-3.2l8.1-23.8h3.7l8.1 23.8h-3.3l-2.5-7.5h-8.4zm7.8-2.4l-2.3-6.9c-.5-1.6-.9-3-1.2-4.4h-.1c-.4 1.4-.7 2.9-1.2 4.3l-2.3 7h7.1zm13.3-12c0 1.1-.7 1.9-2 1.9-1.1 0-1.9-.8-1.9-1.9s.8-1.9 1.9-1.9c1.2-.1 2 .8 2 1.9zm-3.5 21.9V8h3.1v17.1h-3.1zm8.3-11.8c0-2 0-3.7-.1-5.3h2.7l.1 3.4h.1c.8-2.3 2.7-3.7 4.7-3.7.4 0 .6 0 .9.1v2.9c-.3-.1-.6-.1-1.1-.1-2.2 0-3.7 1.7-4.2 4-.1.4-.1.9-.1 1.5v9.1h-3.1V13.3h.1z"/><path class="st2" d="M0 39.8h132.2v27.3H0V39.8z"/><path class="st0" d="M0 27.4h132.2v21.4s-1.6 0-3.9 1.7c0 0-1.9-2-4-.5 0 0-2-7.6-10-7.6s-9.9 6.6-9.9 6.6-4.7-1.3-7.6 2.1c-3 3.3-3.1 5.9-3.1 5.9s-5.5-.9-8.6 3.7c0 0-2.2-.5-4.1 0 0 0-4.8-2.8-7.8-.5 0 0-1.3-2.8-5.3-2 0 0-1.3-3.1-6.2-2.7 0 0-1.3-2.6-2.8-3.1 0 0-2.3-5.3-7.5-5.3s-7.3 3.6-7.3 3.6-3.6.3-4.9 4.1c0 0-2 0-4.1 2.9 0 0-1.4-2.1-4-1.3s-2.7 2.7-2.7 2.7-.7-1.4-2.9-1.4c0 0-1.2-2.8-4.3-3.6s-4.8 1-4.8 1-2.6-3.4-6.5-2.3-4.2 3.7-4.2 3.7-3-1.6-5.7 0V27.4z"/><path class="st1" d="M94.2 39.4c-.5.2-1.5.5-2.8.5-2.9 0-5.2-1.9-5.2-5.3 0-3.3 2.2-5.5 5.5-5.5 1.3 0 2.1.3 2.5.5l-.3 1.1c-.5-.2-1.2-.4-2.1-.4-2.4 0-4.1 1.6-4.1 4.3 0 2.6 1.5 4.2 4 4.2.8 0 1.7-.2 2.2-.4l.3 1z"/><path class="st1" d="M98.7 39.8l-.1-.9c-.4.6-1.2 1.1-2.3 1.1-1.5 0-2.3-1.1-2.3-2.2 0-1.8 1.6-2.8 4.5-2.8v-.2c0-.6-.2-1.7-1.7-1.7-.7 0-1.4.2-2 .6l-.3-.9c.6-.4 1.5-.7 2.5-.7 2.3 0 2.8 1.6 2.8 3.1V38c0 .7 0 1.3.1 1.8h-1.2zm-.2-3.9c-1.5 0-3.2.2-3.2 1.7 0 .9.6 1.3 1.3 1.3 1 0 1.6-.6 1.8-1.3 0-.1.1-.3.1-.4v-1.3zm2.4-1.3c0-.9 0-1.6-.1-2.3h1.2v1.5h.1c.3-1 1.2-1.6 2.1-1.6h.4v1.3h-.5c-1 0-1.6.7-1.8 1.8 0 .2-.1.4-.1.6v4h-1.3v-5.3zm10.6 1.4c0 2.8-1.9 4-3.7 4-2 0-3.6-1.5-3.6-3.9 0-2.5 1.6-4 3.7-4s3.6 1.6 3.6 3.9zm-6 0c0 1.6.9 2.9 2.3 2.9 1.3 0 2.3-1.2 2.3-2.9 0-1.3-.6-2.9-2.2-2.9-1.7 0-2.4 1.5-2.4 2.9zm6.5-7.2h1.4v11H112v-11zm4.1 1.4c0 .5-.3.8-.9.8-.5 0-.8-.4-.8-.8 0-.5.4-.9.9-.9s.8.4.8.9zm-1.5 9.6v-7.5h1.4v7.5h-1.4zm2.5-5.5c0-.8 0-1.4-.1-2h1.2l.1 1.2c.4-.7 1.2-1.4 2.5-1.4 1 0 2.6.6 2.6 3.2v4.5H122v-4.3c0-1.2-.4-2.2-1.7-2.2-.9 0-1.6.6-1.8 1.4-.1.2-.1.4-.1.6v4.5H117l.1-5.5zm11.6 5.5l-.1-.9c-.4.6-1.2 1.1-2.3 1.1-1.5 0-2.3-1.1-2.3-2.2 0-1.8 1.6-2.8 4.5-2.8v-.2c0-.6-.2-1.7-1.7-1.7-.7 0-1.4.2-2 .6l-.3-.9c.6-.4 1.5-.7 2.5-.7 2.3 0 2.8 1.6 2.8 3.1V38c0 .7 0 1.3.1 1.8h-1.2zm-.2-3.9c-1.5 0-3.2.2-3.2 1.7 0 .9.6 1.3 1.3 1.3 1 0 1.6-.6 1.8-1.3 0-.1.1-.3.1-.4v-1.3z"/></svg>