<svg class="banner-text" xmlns="http://www.w3.org/2000/svg" viewBox="0 0 629 166"><title>Everyone has a right to breathe clean, healthy air.</title><path d="M128.796 153.01c.3 0 .56.116.779.348l2.173 2.357a11.935 11.935 0 0 1-4.439 3.424c-1.756.793-3.864 1.189-6.324 1.189-2.2 0-4.179-.376-5.935-1.127-1.756-.752-3.256-1.798-4.5-3.137-1.243-1.34-2.196-2.938-2.86-4.797-.662-1.859-.993-3.888-.993-6.088 0-2.228.368-4.268 1.106-6.12.739-1.852 1.777-3.447 3.117-4.786 1.339-1.34 2.941-2.382 4.807-3.127 1.865-.745 3.925-1.117 6.18-1.117 2.2 0 4.124.352 5.771 1.056 1.647.704 3.058 1.636 4.233 2.798l-1.845 2.563a1.663 1.663 0 0 1-.42.43c-.17.123-.406.184-.707.184-.314 0-.635-.122-.963-.369a11.928 11.928 0 0 0-1.251-.799c-.506-.287-1.145-.553-1.917-.8-.772-.246-1.752-.369-2.942-.369-1.394 0-2.675.243-3.843.728a8.543 8.543 0 0 0-3.014 2.081c-.84.902-1.496 1.999-1.968 3.29-.471 1.292-.707 2.744-.707 4.357 0 1.667.236 3.15.707 4.448.472 1.298 1.11 2.392 1.917 3.28a8.185 8.185 0 0 0 2.85 2.04 8.808 8.808 0 0 0 3.525.707c.752 0 1.432-.041 2.04-.123a8.66 8.66 0 0 0 1.681-.39 7.463 7.463 0 0 0 1.456-.686c.458-.28.912-.625 1.363-1.036a1.95 1.95 0 0 1 .43-.297 1.09 1.09 0 0 1 .493-.113zm13.428 2.439h11.869V160h-17.384v-29.643h5.514v25.092zm35.178-25.092v4.387h-13.14v8.22h10.352v4.244h-10.352v8.385h13.14V160h-18.696v-29.643h18.696zM209.034 160h-4.264c-.478 0-.871-.12-1.179-.359a2.04 2.04 0 0 1-.666-.891l-2.214-6.048h-12.28l-2.214 6.048c-.109.314-.324.6-.645.86s-.714.39-1.179.39h-4.285l11.644-29.643h5.638L209.034 160zm-19.188-11.193h9.45l-3.607-9.86a45.031 45.031 0 0 1-.544-1.548 37.723 37.723 0 0 1-.584-1.938c-.191.698-.38 1.347-.564 1.948a21.794 21.794 0 0 1-.543 1.579l-3.608 9.819zm25.933-18.45c.246 0 .451.01.615.03.164.021.31.062.44.124.13.061.257.15.38.266.123.116.26.27.41.462l15.56 19.823a20.41 20.41 0 0 1-.113-1.404c-.02-.458-.031-.885-.031-1.281v-18.02h4.859V160h-2.85c-.437 0-.8-.068-1.087-.205-.287-.137-.567-.383-.84-.738l-15.498-19.742a28.436 28.436 0 0 1 .123 2.481V160h-4.859v-29.643h2.891zm27.553 26.527a2.703 2.703 0 0 1 .82-1.958c.26-.253.573-.45.943-.594a3.31 3.31 0 0 1 1.209-.215c.52 0 .97.092 1.353.276.383.185.704.438.963.759.26.32.451.69.575 1.107.123.417.184.857.184 1.322 0 .656-.1 1.346-.297 2.07a10.696 10.696 0 0 1-.871 2.173 12.66 12.66 0 0 1-1.415 2.112 12.601 12.601 0 0 1-1.927 1.886l-.881-.8a.95.95 0 0 1-.37-.758c0-.11.038-.232.113-.369a1.63 1.63 0 0 1 .277-.369l.553-.605c.22-.239.438-.512.656-.82.22-.307.42-.642.605-1.004a4.47 4.47 0 0 0 .4-1.159c-.424 0-.813-.078-1.168-.235a2.732 2.732 0 0 1-.913-.646 3.008 3.008 0 0 1-.594-.963 3.31 3.31 0 0 1-.215-1.21zm45.1 3.116h-5.555v-12.956h-13.899V160h-5.555v-29.643h5.555v12.751h13.899v-12.751h5.555V160zm25.482-29.643v4.387h-13.14v8.22h10.353v4.244h-10.353v8.385h13.14V160H295.22v-29.643h18.695zM345.546 160h-4.263c-.479 0-.872-.12-1.18-.359a2.04 2.04 0 0 1-.666-.891l-2.214-6.048h-12.279l-2.214 6.048c-.11.314-.325.6-.646.86-.32.26-.714.39-1.178.39h-4.285l11.644-29.643h5.637L345.546 160zm-19.188-11.193h9.451l-3.608-9.86a45.031 45.031 0 0 1-.543-1.548 37.723 37.723 0 0 1-.584-1.938c-.192.698-.38 1.347-.564 1.948a21.793 21.793 0 0 1-.543 1.579l-3.608 9.819zm28.558 6.642h11.869V160h-17.384v-29.643h5.514v25.092zm33.764-25.092v4.53h-8.918V160h-5.514v-25.113h-8.959v-4.53h23.39zM417.995 160h-5.555v-12.956h-13.9V160h-5.555v-29.643h5.555v12.751h13.9v-12.751h5.555V160zm19.967-11.521V160h-5.514v-11.521l-10.803-18.122h4.858c.478 0 .858.116 1.138.349.28.232.516.526.707.881l5.433 9.901c.314.588.587 1.145.82 1.671.232.526.444 1.042.635 1.548.178-.52.38-1.042.605-1.568.225-.526.495-1.076.81-1.65l5.391-9.902c.15-.3.376-.58.677-.84.3-.26.683-.39 1.147-.39h4.88l-10.784 18.122zM487.184 160h-4.264c-.478 0-.871-.12-1.179-.359a2.04 2.04 0 0 1-.666-.891l-2.214-6.048h-12.28l-2.214 6.048c-.109.314-.324.6-.645.86s-.714.39-1.179.39h-4.284l11.643-29.643h5.638L487.184 160zm-19.188-11.193h9.45l-3.608-9.86a45.031 45.031 0 0 1-.543-1.548 37.723 37.723 0 0 1-.584-1.938c-.191.698-.38 1.347-.564 1.948a21.793 21.793 0 0 1-.543 1.579l-3.608 9.819zM497.25 160h-5.535v-29.643h5.535V160zm13.161-11.583V160h-5.514v-29.643h9.04c2.023 0 3.755.208 5.197.625 1.442.417 2.624 1.001 3.547 1.753.922.752 1.599 1.65 2.03 2.696.43 1.045.645 2.197.645 3.454 0 .998-.147 1.94-.44 2.829a8.187 8.187 0 0 1-1.272 2.419 8.566 8.566 0 0 1-2.05 1.906c-.813.547-1.739.984-2.778 1.313.698.396 1.299.963 1.804 1.701L528.043 160h-4.962c-.478 0-.884-.096-1.22-.287a2.494 2.494 0 0 1-.85-.82l-6.232-9.492c-.232-.355-.489-.608-.769-.758-.28-.15-.693-.226-1.24-.226h-2.358zm0-3.956h3.445c1.038 0 1.944-.13 2.716-.39.772-.26 1.407-.618 1.906-1.076a4.322 4.322 0 0 0 1.118-1.63 5.635 5.635 0 0 0 .369-2.07c0-1.503-.496-2.658-1.487-3.464-.99-.807-2.504-1.21-4.54-1.21h-3.526v9.84zM16.125 98.611l4 18.789-8.946 1.904L.941 71.218l14.665-3.122c3.282-.699 6.164-.959 8.646-.78 2.483.178 4.603.717 6.359 1.618 1.756.9 3.164 2.125 4.223 3.672 1.06 1.547 1.806 3.34 2.24 5.38.345 1.619.432 3.2.262 4.742a13.578 13.578 0 0 1-1.226 4.363c-.648 1.366-1.537 2.633-2.667 3.8-1.13 1.168-2.481 2.197-4.053 3.088 1.268.402 2.439 1.115 3.514 2.137l15.819 15.196-8.048 1.713c-.776.165-1.468.15-2.078-.045-.609-.194-1.163-.54-1.663-1.036L23.547 98.7c-.5-.496-1.003-.817-1.51-.965-.506-.147-1.202-.126-2.089.063l-3.824.814zm-1.367-6.418l5.587-1.19c1.685-.358 3.109-.881 4.272-1.57 1.163-.687 2.07-1.489 2.72-2.404a7.169 7.169 0 0 0 1.25-3.03c.182-1.104.144-2.266-.116-3.485-.52-2.44-1.722-4.141-3.607-5.107-1.886-.966-4.48-1.097-7.784-.394l-5.72 1.218 3.398 15.962zm49.668 17.445l-9.049 1.543-8.267-48.463 9.049-1.544 8.267 48.464zm31.817-11.709c2.038-.318 3.784-.78 5.238-1.385a22.699 22.699 0 0 0 4.079-2.202l-1.38-8.835-6.08.949c-.582.09-1.066 0-1.453-.272a1.614 1.614 0 0 1-.69-1.114l-.797-5.106 16.158-2.522 3.067 19.652a27.011 27.011 0 0 1-3.482 2.935 24.86 24.86 0 0 1-4.012 2.295 33.074 33.074 0 0 1-4.705 1.715 46.201 46.201 0 0 1-5.526 1.19c-3.539.552-6.893.444-10.064-.323-3.171-.766-6.014-2.078-8.529-3.934-2.515-1.855-4.62-4.21-6.316-7.066-1.696-2.855-2.825-6.086-3.388-9.692-.57-3.65-.499-7.09.213-10.322.712-3.231 1.988-6.114 3.829-8.65 1.841-2.535 4.224-4.65 7.148-6.346 2.924-1.695 6.323-2.845 10.198-3.45 3.964-.618 7.488-.566 10.572.157 3.083.723 5.78 1.868 8.089 3.435l-1.98 4.507c-.387.91-1.005 1.43-1.856 1.563-.537.084-1.114-.01-1.73-.28a129.5 129.5 0 0 0-2.4-.934 15.067 15.067 0 0 0-2.658-.72 20.511 20.511 0 0 0-3.178-.296c-1.162-.025-2.483.078-3.96.308-2.397.374-4.501 1.116-6.312 2.224-1.812 1.109-3.283 2.52-4.415 4.234-1.132 1.713-1.904 3.68-2.314 5.901-.41 2.22-.413 4.63-.008 7.228.437 2.8 1.218 5.23 2.342 7.29 1.125 2.062 2.51 3.733 4.155 5.013a14.355 14.355 0 0 0 5.576 2.657c2.073.49 4.263.556 6.57.196zm68.193-1.656l-9.142 1.146-2.671-21.322-22.874 2.866 2.672 21.321-9.143 1.145-6.112-48.782 9.143-1.146 2.629 20.984 22.873-2.865-2.629-20.984 9.143-1.145 6.111 48.782zm39.436-52.468l.707 7.48-14.724 1.392 3.917 41.465-9.105.86-3.918-41.465-14.792 1.398-.707-7.481 38.622-3.649zm54.28-2.986l.466 7.499-14.761.92 2.589 41.569-9.128.568-2.59-41.57-14.829.924-.467-7.5 38.72-2.41zm52.01 23.064c.14 3.602-.331 6.96-1.413 10.076-1.082 3.115-2.667 5.836-4.754 8.162-2.088 2.327-4.636 4.178-7.645 5.553-3.01 1.375-6.371 2.135-10.086 2.279-3.715.143-7.13-.354-10.248-1.493-3.118-1.138-5.813-2.786-8.085-4.944-2.273-2.158-4.069-4.748-5.388-7.77-1.319-3.023-2.048-6.335-2.187-9.936-.14-3.602.332-6.96 1.413-10.075 1.082-3.116 2.672-5.837 4.771-8.164 2.1-2.327 4.66-4.178 7.68-5.554 3.02-1.376 6.387-2.135 10.102-2.279 3.715-.144 7.125.36 10.232 1.51 3.107 1.15 5.79 2.798 8.051 4.945 2.26 2.147 4.05 4.732 5.37 7.755 1.319 3.022 2.048 6.334 2.187 9.935zm-9.377.363c-.104-2.695-.554-5.1-1.35-7.212-.797-2.113-1.892-3.89-3.286-5.334-1.394-1.443-3.063-2.524-5.008-3.243-1.944-.719-4.117-1.032-6.518-.939-2.401.093-4.549.573-6.443 1.44-1.895.868-3.487 2.075-4.777 3.622-1.29 1.547-2.256 3.404-2.898 5.573-.642 2.168-.91 4.6-.806 7.295.104 2.696.56 5.1 1.367 7.212.808 2.112 1.914 3.884 3.32 5.316 1.404 1.431 3.085 2.506 5.04 3.224 1.957.718 4.135 1.031 6.536.938 2.4-.092 4.543-.572 6.426-1.44 1.883-.866 3.464-2.067 4.743-3.602 1.28-1.535 2.234-3.387 2.865-5.555.63-2.168.894-4.6.79-7.295zm29.891 25.136l.295-49.163 16.966.102c3.219.02 5.965.342 8.24.968 2.274.625 4.139 1.51 5.594 2.651 1.455 1.142 2.518 2.52 3.188 4.134.67 1.613 1 3.428.987 5.446a10.73 10.73 0 0 1-.53 3.311 9.59 9.59 0 0 1-1.598 2.949c-.72.914-1.632 1.741-2.735 2.482-1.104.742-2.417 1.369-3.939 1.88 6.746 1.56 10.101 5.23 10.066 11.01-.012 2.085-.42 4.009-1.224 5.772a12.749 12.749 0 0 1-3.496 4.552c-1.526 1.272-3.402 2.264-5.628 2.976-2.225.712-4.766 1.059-7.622 1.042l-18.564-.112zm9.276-21.5l-.087 14.415 9.282.056c1.7.01 3.123-.185 4.27-.586 1.147-.401 2.069-.94 2.764-1.616a5.978 5.978 0 0 0 1.51-2.37c.312-.905.47-1.868.477-2.888.006-1.065-.158-2.024-.493-2.876a5.388 5.388 0 0 0-1.585-2.185c-.722-.605-1.648-1.07-2.78-1.394-1.131-.324-2.501-.491-4.11-.5l-9.248-.056zm.038-6.324l7.31.044c3.105.018 5.465-.534 7.081-1.658 1.617-1.123 2.432-2.92 2.447-5.391.015-2.562-.7-4.39-2.143-5.487-1.444-1.097-3.708-1.654-6.79-1.673l-7.82-.047-.085 14.212zm44.7 10.014l-.676 19.198-9.14-.321 1.73-49.134 14.985.528c3.352.118 6.211.564 8.577 1.34 2.365.774 4.29 1.812 5.776 3.112 1.485 1.3 2.554 2.828 3.207 4.586.652 1.758.942 3.68.868 5.763a14.87 14.87 0 0 1-.895 4.664 13.578 13.578 0 0 1-2.248 3.935c-.96 1.168-2.13 2.182-3.51 3.04-1.38.86-2.94 1.53-4.68 2.013 1.132.698 2.096 1.673 2.89 2.926l11.662 18.577-8.223-.29c-.793-.027-1.46-.21-2.005-.546a4.13 4.13 0 0 1-1.362-1.409l-9.776-16.096c-.364-.602-.774-1.036-1.23-1.302-.455-.265-1.136-.414-2.042-.446l-3.908-.138zm.231-6.558l5.709.201c1.721.061 3.23-.101 4.525-.487 1.295-.385 2.369-.943 3.222-1.672a7.169 7.169 0 0 0 1.947-2.636c.445-1.028.689-2.165.733-3.41.088-2.493-.666-4.436-2.261-5.83-1.596-1.394-4.08-2.15-7.456-2.27l-5.845-.205-.574 16.31zm67.768-19.379l-.458 7.262-21.75-1.374-.86 13.607 17.136 1.082-.443 7.024-17.136-1.082-.876 13.879 21.75 1.373-.46 7.295-30.946-1.953 3.097-49.067 30.946 1.954zm47.417 53.84l-7.046-.61c-.79-.07-1.423-.323-1.896-.762a3.383 3.383 0 0 1-.973-1.57l-2.793-10.309-20.29-1.759-4.524 9.676c-.226.503-.622.947-1.19 1.33-.568.383-1.236.541-2.004.475l-7.08-.614 23.487-47.312 9.315.807 14.994 50.648zm-30.102-21.243l15.615 1.354-4.55-16.81a74.685 74.685 0 0 1-.675-2.635 62.566 62.566 0 0 1-.688-3.285c-.416 1.124-.82 2.17-1.21 3.137a35.874 35.874 0 0 1-1.124 2.53l-7.368 15.71zm69.628-23.094l-.84 7.467-14.698-1.654-4.658 41.389-9.088-1.023 4.657-41.389-14.764-1.661.84-7.467 38.55 4.338zm40.904 55.687l-9.129-1.25 2.917-21.29-22.839-3.129-2.917 21.29-9.128-1.251 6.673-48.71 9.129 1.252-2.87 20.952 22.838 3.129 2.87-20.952 9.129 1.25-6.673 48.71zm48.141-40.971l-1.225 7.172-21.483-3.67-2.296 13.44 16.925 2.89-1.185 6.938-16.925-2.89-2.341 13.706 21.483 3.67-1.231 7.206-30.566-5.221 8.279-48.462 30.565 5.22zM229.004.648v2.568h-7.692v4.812h6.06v2.484h-6.06v4.908h7.692V18H218.06V.648h10.944zm1.092 0h2.604c.28 0 .508.068.684.204.176.136.308.312.396.528l4.08 10.584c.136.344.266.722.39 1.134.124.412.242.846.354 1.302.184-.92.412-1.732.684-2.436l4.068-10.584c.072-.184.2-.352.384-.504.184-.152.412-.228.684-.228h2.604L240.02 18h-2.916L230.096.648zm29.688 0v2.568h-7.692v4.812h6.06v2.484h-6.06v4.908h7.692V18H248.84V.648h10.944zm6.132 10.572V18h-3.228V.648h5.292c1.184 0 2.198.122 3.042.366.844.244 1.536.586 2.076 1.026.54.44.936.966 1.188 1.578.252.612.378 1.286.378 2.022a5.24 5.24 0 0 1-.258 1.656c-.172.52-.42.992-.744 1.416a5.014 5.014 0 0 1-1.2 1.116 6.29 6.29 0 0 1-1.626.768c.408.232.76.564 1.056.996L276.236 18h-2.904c-.28 0-.518-.056-.714-.168a1.46 1.46 0 0 1-.498-.48l-3.648-5.556a1.28 1.28 0 0 0-.45-.444c-.164-.088-.406-.132-.726-.132h-1.38zm0-2.316h2.016c.608 0 1.138-.076 1.59-.228.452-.152.824-.362 1.116-.63a2.53 2.53 0 0 0 .654-.954c.144-.368.216-.772.216-1.212 0-.88-.29-1.556-.87-2.028-.58-.472-1.466-.708-2.658-.708h-2.064v5.76zm20.1 2.352V18h-3.228v-6.744L276.464.648h2.844c.28 0 .502.068.666.204.164.136.302.308.414.516l3.18 5.796c.184.344.344.67.48.978.136.308.26.61.372.906.104-.304.222-.61.354-.918.132-.308.29-.63.474-.966l3.156-5.796c.088-.176.22-.34.396-.492.176-.152.4-.228.672-.228h2.856l-6.312 10.608zm24.636-1.932c0 1.272-.212 2.45-.636 3.534a8.372 8.372 0 0 1-1.788 2.814 8.097 8.097 0 0 1-2.772 1.854c-1.08.444-2.276.666-3.588.666-1.312 0-2.51-.222-3.594-.666a8.147 8.147 0 0 1-2.784-1.854 8.325 8.325 0 0 1-1.794-2.814c-.424-1.084-.636-2.262-.636-3.534 0-1.272.212-2.45.636-3.534a8.325 8.325 0 0 1 1.794-2.814 8.147 8.147 0 0 1 2.784-1.854c1.084-.444 2.282-.666 3.594-.666 1.312 0 2.508.224 3.588.672a8.212 8.212 0 0 1 2.772 1.854 8.307 8.307 0 0 1 1.788 2.808c.424 1.084.636 2.262.636 3.534zm-3.312 0c0-.952-.126-1.806-.378-2.562-.252-.756-.614-1.398-1.086-1.926a4.676 4.676 0 0 0-1.722-1.212c-.676-.28-1.438-.42-2.286-.42-.848 0-1.612.14-2.292.42a4.72 4.72 0 0 0-1.734 1.212c-.476.528-.842 1.17-1.098 1.926-.256.756-.384 1.61-.384 2.562 0 .952.128 1.806.384 2.562.256.756.622 1.396 1.098 1.92a4.753 4.753 0 0 0 1.734 1.206c.68.28 1.444.42 2.292.42.848 0 1.61-.14 2.286-.42a4.708 4.708 0 0 0 1.722-1.206c.472-.524.834-1.164 1.086-1.92.252-.756.378-1.61.378-2.562zm7.548-8.676c.144 0 .264.006.36.018a.844.844 0 0 1 .258.072c.076.036.15.088.222.156.072.068.152.158.24.27l9.108 11.604c-.032-.28-.054-.554-.066-.822a16.832 16.832 0 0 1-.018-.75V.648h2.844V18h-1.668c-.256 0-.468-.04-.636-.12-.168-.08-.332-.224-.492-.432l-9.072-11.556a16.646 16.646 0 0 1 .072 1.452V18h-2.844V.648h1.692zm27.396 0v2.568h-7.692v4.812h6.06v2.484h-6.06v4.908h7.692V18H331.34V.648h10.944zM364.352 18H361.1v-7.584h-8.136V18h-3.252V.648h3.252v7.464h8.136V.648h3.252V18zm18.756 0h-2.496c-.28 0-.51-.07-.69-.21-.18-.14-.31-.314-.39-.522l-1.296-3.54h-7.188l-1.296 3.54c-.064.184-.19.352-.378.504a1.062 1.062 0 0 1-.69.228h-2.508L372.992.648h3.3L383.108 18zm-11.232-6.552h5.532l-2.112-5.772a26.361 26.361 0 0 1-.318-.906c-.116-.348-.23-.726-.342-1.134-.112.408-.222.788-.33 1.14-.108.352-.214.66-.318.924l-2.112 5.748zm22.32-7.644c-.088.176-.19.3-.306.372a.77.77 0 0 1-.414.108c-.16 0-.34-.062-.54-.186s-.436-.262-.708-.414a5.781 5.781 0 0 0-.954-.414c-.364-.124-.794-.186-1.29-.186-.448 0-.838.054-1.17.162a2.477 2.477 0 0 0-.84.45 1.798 1.798 0 0 0-.51.69 2.265 2.265 0 0 0-.168.882c0 .408.114.748.342 1.02.228.272.53.504.906.696.376.192.804.364 1.284.516.48.152.97.314 1.47.486s.99.372 1.47.6c.48.228.908.516 1.284.864s.678.774.906 1.278c.228.504.342 1.116.342 1.836 0 .784-.134 1.518-.402 2.202a5.08 5.08 0 0 1-1.176 1.788 5.54 5.54 0 0 1-1.89 1.2c-.744.292-1.596.438-2.556.438a8.242 8.242 0 0 1-1.632-.162 8.59 8.59 0 0 1-1.542-.462c-.492-.2-.952-.44-1.38-.72a6.79 6.79 0 0 1-1.146-.936l.936-1.548c.088-.112.194-.206.318-.282a.777.777 0 0 1 .414-.114c.2 0 .416.082.648.246.232.164.506.346.822.546.316.2.688.382 1.116.546.428.164.942.246 1.542.246.92 0 1.632-.218 2.136-.654.504-.436.756-1.062.756-1.878 0-.456-.114-.828-.342-1.116a2.761 2.761 0 0 0-.906-.726 6.765 6.765 0 0 0-1.284-.498c-.48-.136-.968-.284-1.464-.444-.496-.16-.984-.352-1.464-.576a4.743 4.743 0 0 1-1.284-.876 3.986 3.986 0 0 1-.906-1.35c-.228-.54-.342-1.206-.342-1.998 0-.632.126-1.248.378-1.848.252-.6.62-1.132 1.104-1.596.484-.464 1.078-.836 1.782-1.116.704-.28 1.508-.42 2.412-.42 1.024 0 1.968.16 2.832.48.864.32 1.6.768 2.208 1.344l-.792 1.524zM417.656 18h-2.496c-.28 0-.51-.07-.69-.21-.18-.14-.31-.314-.39-.522l-1.296-3.54h-7.188l-1.296 3.54c-.064.184-.19.352-.378.504a1.062 1.062 0 0 1-.69.228h-2.508L407.54.648h3.3L417.656 18zm-11.232-6.552h5.532l-2.112-5.772a26.361 26.361 0 0 1-.318-.906c-.116-.348-.23-.726-.342-1.134-.112.408-.222.788-.33 1.14-.108.352-.214.66-.318.924l-2.112 5.748z" fill="#FFF" fill-rule="evenodd"/></svg>