<svg class="banner-text" aria-labelledby="right-to-breathe" role="img" xmlns="http://www.w3.org/2000/svg" viewBox="0 0 629 166">
  <title id="right-to-breathe">Everyone has a right to breathe clean, healthy air.</title>
  <g fill="#FFFFFF" fill-rule="evenodd">
    <path d="M128.7955 153.0095C129.096168 153.0095 129.355832 153.125666 129.5745 153.358L131.7475 155.7155C130.544827 157.205174 129.065425 158.346329 127.30925 159.139 125.553074 159.931671 123.445012 160.328 120.985 160.328 118.784656 160.328 116.806425 159.95217 115.05025 159.2005 113.294074 158.44883 111.794173 157.40334 110.5505 156.064 109.306827 154.72466 108.353587 153.125676 107.69075 151.267 107.027913 149.408324 106.6965 147.378844 106.6965 145.1785 106.6965 142.950822 107.065496 140.911093 107.8035 139.05925 108.541504 137.207407 109.58016 135.61184 110.9195 134.2725 112.25884 132.93316 113.861241 131.891087 115.72675 131.14625 117.592259 130.401413 119.652489 130.029 121.9075 130.029 124.107844 130.029 126.031408 130.380913 127.67825 131.08475 129.325091 131.788587 130.736161 132.721328 131.9115 133.883L130.0665 136.4455C129.957166 136.609501 129.817084 136.752999 129.64625 136.876 129.475416 136.999001 129.239668 137.0605 128.939 137.0605 128.624665 137.0605 128.303502 136.937501 127.9755 136.6915 127.647498 136.445499 127.230669 136.179001 126.725 135.892 126.219331 135.604999 125.58042 135.338501 124.80825 135.0925 124.036079 134.846499 123.055506 134.7235 121.8665 134.7235 120.472493 134.7235 119.191256 134.966081 118.02275 135.45125 116.854244 135.936419 115.849754 136.629995 115.00925 137.532 114.168746 138.434005 113.512752 139.530744 113.04125 140.82225 112.569748 142.113756 112.334 143.565825 112.334 145.1785 112.334 146.845842 112.569748 148.32866 113.04125 149.627 113.512752 150.92534 114.151663 152.018662 114.958 152.907 115.764337 153.795338 116.714161 154.475248 117.8075 154.94675 118.900839 155.418252 120.07616 155.654 121.3335 155.654 122.08517 155.654 122.76508 155.613 123.37325 155.531 123.98142 155.449 124.541747 155.319168 125.05425 155.1415 125.566752 154.963832 126.051914 154.734918 126.50975 154.45475 126.967586 154.174582 127.421998 153.829502 127.873 153.4195 128.009667 153.296499 128.153166 153.197417 128.3035 153.12225 128.453834 153.047083 128.617832 153.0095 128.7955 153.0095zM142.2235 155.449L154.093 155.449 154.093 160 136.709 160 136.709 130.357 142.2235 130.357 142.2235 155.449zM177.402 130.357L177.402 134.744 164.2615 134.744 164.2615 142.9645 174.614 142.9645 174.614 147.208 164.2615 147.208 164.2615 155.5925 177.402 155.5925 177.402 160 158.706 160 158.706 130.357 177.402 130.357zM209.034 160L204.77 160C204.291664 160 203.898751 159.880418 203.59125 159.64125 203.283748 159.402082 203.061667 159.104835 202.925 158.7495L200.711 152.702 188.4315 152.702 186.2175 158.7495C186.108166 159.063835 185.892918 159.350832 185.57175 159.6105 185.250582 159.870168 184.857669 160 184.393 160L180.1085 160 191.7525 130.357 197.39 130.357 209.034 160zM189.846 148.807L199.2965 148.807 195.6885 138.9465C195.524499 138.509164 195.343418 137.993253 195.14525 137.39875 194.947082 136.804247 194.752334 136.158503 194.561 135.4615 194.369666 136.158503 194.181751 136.807664 193.99725 137.409 193.812749 138.010336 193.631667 138.536498 193.454 138.9875L189.846 148.807zM215.779 130.357C216.025001 130.357 216.229999 130.36725 216.394 130.38775 216.558001 130.40825 216.704916 130.44925 216.83475 130.51075 216.964584 130.57225 217.090999 130.661083 217.214 130.77725 217.337001 130.893417 217.473666 131.047166 217.624 131.2385L233.1835 151.062C233.128833 150.583664 233.09125 150.115586 233.07075 149.65775 233.05025 149.199914 233.04 148.772835 233.04 148.3765L233.04 130.357 237.8985 130.357 237.8985 160 235.049 160C234.611664 160 234.249501 159.931667 233.9625 159.795 233.675499 159.658333 233.395335 159.412335 233.122 159.057L217.624 139.3155C217.665 139.752836 217.69575 140.186748 217.71625 140.61725 217.73675 141.047752 217.747 141.440665 217.747 141.796L217.747 160 212.8885 160 212.8885 130.357 215.779 130.357zM243.3315 156.884C243.3315 156.501331 243.403249 156.142585 243.54675 155.80775 243.690251 155.472915 243.891832 155.179085 244.1515 154.92625 244.411168 154.673415 244.725498 154.475251 245.0945 154.33175 245.463502 154.188249 245.866664 154.1165 246.304 154.1165 246.823336 154.1165 247.274331 154.208749 247.657 154.39325 248.039669 154.577751 248.360832 154.830582 248.6205 155.15175 248.880168 155.472918 249.071499 155.841915 249.1945 156.25875 249.317501 156.675585 249.379 157.116331 249.379 157.581 249.379 158.237003 249.279918 158.927163 249.08175 159.6515 248.883582 160.375837 248.593169 161.100163 248.2105 161.8245 247.827831 162.548837 247.356336 163.252663 246.796 163.936 246.235664 164.619337 245.593337 165.247997 244.869 165.822L243.9875 165.0225C243.741499 164.817499 243.6185 164.564668 243.6185 164.264 243.6185 164.154666 243.656083 164.031667 243.73125 163.895 243.806417 163.758333 243.898666 163.635334 244.008 163.526 244.158334 163.361999 244.342832 163.160418 244.5615 162.92125 244.780168 162.682082 244.998832 162.408752 245.2175 162.10125 245.436168 161.793748 245.637749 161.458918 245.82225 161.09675 246.006751 160.734582 246.14 160.348502 246.222 159.9385 245.798331 159.9385 245.408835 159.859917 245.0535 159.70275 244.698165 159.545583 244.394085 159.330335 244.14125 159.057 243.888415 158.783665 243.690251 158.462502 243.54675 158.0935 243.403249 157.724498 243.3315 157.321336 243.3315 156.884zM288.4325 160L282.877 160 282.877 147.044 268.978 147.044 268.978 160 263.4225 160 263.4225 130.357 268.978 130.357 268.978 143.108 282.877 143.108 282.877 130.357 288.4325 130.357 288.4325 160zM313.9145 130.357L313.9145 134.744 300.774 134.744 300.774 142.9645 311.1265 142.9645 311.1265 147.208 300.774 147.208 300.774 155.5925 313.9145 155.5925 313.9145 160 295.2185 160 295.2185 130.357 313.9145 130.357zM345.5465 160L341.2825 160C340.804164 160 340.411252 159.880418 340.10375 159.64125 339.796248 159.402082 339.574167 159.104835 339.4375 158.7495L337.2235 152.702 324.944 152.702 322.73 158.7495C322.620666 159.063835 322.405418 159.350832 322.08425 159.6105 321.763082 159.870168 321.370169 160 320.9055 160L316.621 160 328.265 130.357 333.9025 130.357 345.5465 160zM326.3585 148.807L335.809 148.807 332.201 138.9465C332.036999 138.509164 331.855918 137.993253 331.65775 137.39875 331.459582 136.804247 331.264834 136.158503 331.0735 135.4615 330.882166 136.158503 330.694251 136.807664 330.50975 137.409 330.325249 138.010336 330.144168 138.536498 329.9665 138.9875L326.3585 148.807zM354.9155 155.449L366.785 155.449 366.785 160 349.401 160 349.401 130.357 354.9155 130.357 354.9155 155.449zM388.6795 130.357L388.6795 134.8875 379.762 134.8875 379.762 160 374.2475 160 374.2475 134.8875 365.289 134.8875 365.289 130.357 388.6795 130.357zM417.995 160L412.4395 160 412.4395 147.044 398.5405 147.044 398.5405 160 392.985 160 392.985 130.357 398.5405 130.357 398.5405 143.108 412.4395 143.108 412.4395 130.357 417.995 130.357 417.995 160zM437.9625 148.479L437.9625 160 432.448 160 432.448 148.479 421.6445 130.357 426.503 130.357C426.981336 130.357 427.360582 130.473166 427.64075 130.7055 427.920918 130.937834 428.156666 131.231665 428.348 131.587L433.7805 141.4885C434.094835 142.07617 434.368166 142.633081 434.6005 143.15925 434.832835 143.685419 435.044666 144.201331 435.236 144.707 435.413668 144.187664 435.615249 143.664919 435.84075 143.13875 436.066251 142.612581 436.336165 142.062503 436.6505 141.4885L442.042 131.587C442.192334 131.286332 442.417832 131.006168 442.7185 130.7465 443.019168 130.486832 443.401831 130.357 443.8665 130.357L448.7455 130.357 437.9625 148.479zM487.184 160L482.92 160C482.441664 160 482.048752 159.880418 481.74125 159.64125 481.433749 159.402082 481.211667 159.104835 481.075 158.7495L478.861 152.702 466.5815 152.702 464.3675 158.7495C464.258166 159.063835 464.042918 159.350832 463.72175 159.6105 463.400582 159.870168 463.007669 160 462.543 160L458.2585 160 469.9025 130.357 475.54 130.357 487.184 160zM467.996 148.807L477.4465 148.807 473.8385 138.9465C473.674499 138.509164 473.493418 137.993253 473.29525 137.39875 473.097082 136.804247 472.902334 136.158503 472.711 135.4615 472.519666 136.158503 472.331751 136.807664 472.14725 137.409 471.962749 138.010336 471.781668 138.536498 471.604 138.9875L467.996 148.807zM497.25 160L491.715 160 491.715 130.357 497.25 130.357 497.25 160zM510.4115 148.4175L510.4115 160 504.897 160 504.897 130.357 513.9375 130.357C515.960177 130.357 517.69241 130.565415 519.13425 130.98225 520.576091 131.399085 521.758245 131.98333 522.68075 132.735 523.603255 133.48667 524.279748 134.385245 524.71025 135.43075 525.140752 136.476255 525.356 137.62766 525.356 138.885 525.356 139.882672 525.209085 140.825662 524.91525 141.714 524.621415 142.602338 524.197753 143.408663 523.64425 144.133 523.090747 144.857337 522.407421 145.492831 521.59425 146.0395 520.781079 146.586169 519.855172 147.023498 518.8165 147.3515 519.513504 147.747835 520.114831 148.314996 520.6205 149.053L528.0415 160 523.0805 160C522.602164 160 522.195585 159.904334 521.86075 159.713 521.525915 159.521666 521.242335 159.248335 521.01 158.893L514.778 149.4015C514.545666 149.046165 514.289418 148.793334 514.00925 148.643 513.729082 148.492666 513.31567 148.4175 512.769 148.4175L510.4115 148.4175zM510.4115 144.461L513.8555 144.461C514.894172 144.461 515.79958 144.331168 516.57175 144.0715 517.343921 143.811832 517.979414 143.453086 518.47825 142.99525 518.977086 142.537414 519.349499 141.99417 519.5955 141.3655 519.841501 140.73683 519.9645 140.04667 519.9645 139.295 519.9645 137.791659 519.469088 136.636837 518.47825 135.8305 517.487412 135.024163 515.973844 134.621 513.9375 134.621L510.4115 134.621 510.4115 144.461zM16.1237672 98.6111069L20.1237774 117.40004 11.1782498 119.30447.941055536 71.2181023 15.6064 68.0959705C18.8875517 67.3974401 21.7695258 67.1373011 24.2524087 67.3155455 26.7352917 67.4937899 28.8547315 68.0332842 30.6107917 68.9340447 32.3668518 69.8348051 33.7745698 71.0588305 34.8339877 72.6061575 35.8934056 74.1534845 36.6402141 75.9469385 37.0744357 77.9865733 37.418981 79.6049792 37.506319 81.1854195 37.3364522 82.7279415 37.1665854 84.2704636 36.7577914 85.7247822 36.1100581 87.0909411 35.4623248 88.4571 34.5733116 89.7239734 33.4429919 90.8915992 32.3126723 92.0592251 30.9617124 93.0884142 29.3900719 93.9791977 30.6576132 94.3814163 31.8289448 95.0937871 32.9041019 96.1163314L48.7228618 111.311529 40.6752125 113.024808C39.8992644 113.190001 39.2066804 113.175226 38.5974396 112.980481 37.9881988 112.785737 37.4337848 112.440279 36.9341809 111.944098L23.5468527 98.6993664C23.0472488 98.2031845 22.5442536 97.8815416 22.037852 97.7344281 21.5314503 97.5873146 20.8348611 97.6081535 19.9480633 97.7969455L16.1237672 98.6111069zM14.757392 92.1929403L20.3441899 91.0035567C22.0291056 90.6448519 23.4530049 90.1215586 24.6159306 89.433661 25.7788562 88.7457634 26.6858502 87.9443437 27.3369399 87.0293779 27.9880296 86.1144121 28.4045422 85.1045574 28.5864904 83.9997836 28.7684387 82.8950098 28.7296188 81.7329669 28.4700299 80.51362 27.9508519 78.0749262 26.7483864 76.3726842 24.8625973 75.406843 22.9768082 74.4410018 20.3822918 74.3097082 17.0789701 75.0129583L11.3591532 76.2306606 14.757392 92.1929403zM64.4252771 109.637713L55.3760031 111.181423 47.10858 62.7175332 56.157854 61.1738235 64.4252771 109.637713zM96.2422917 97.9293749C98.2802996 97.6113181 100.026297 97.1495716 101.480337 96.5441215 102.934376 95.9386714 104.293765 95.2046184 105.558543 94.3419404L104.179722 85.5068844 98.0993219 86.4558072C97.5170339 86.5466806 97.0325898 86.4559633 96.6459751 86.1836527 96.2593603 85.9113422 96.0293576 85.5400377 95.9559598 85.0697282L95.1590744 79.9635361 111.317485 77.441813 114.384445 97.0939338C113.292488 98.1819936 112.131807 99.1603253 110.90237 100.028958 109.672933 100.897591 108.335583 101.662616 106.890282 102.324056 105.44498 102.985495 103.87672 103.557148 102.185456 104.039032 100.494191 104.520916 98.6519784 104.917385 96.6587618 105.228452 93.1202426 105.780682 89.7656038 105.673344 86.5947448 104.906433 83.4238857 104.139522 80.5810465 102.828211 78.0661418 100.972461 75.5512371 99.1167107 73.4458649 96.7612062 71.7499622 93.9058767 70.0540594 91.0505473 68.9247671 87.8200778 68.3620513 84.2143715 67.7923452 80.5638739 67.8633082 77.1231487 68.5749422 73.8920928 69.2865763 70.661037 70.5629028 67.7777759 72.4039601 65.242223 74.2450173 62.7066702 76.6276422 60.5913304 79.5519063 58.8961401 82.4761705 57.2009498 85.8754788 56.0510432 89.7499334 55.4463859 93.7139708 54.827748 97.2378047 54.8800056 100.321541 55.6031601 103.405277 56.3263147 106.101707 57.471213 108.41091 59.0378895L106.430232 63.5452086C106.044451 64.4542371 105.426052 64.975151 104.575016 65.1079659 104.037519 65.191849 103.460872 65.0983156 102.845058 64.8273627 102.061988 64.5136887 101.262134 64.2026407 100.445471 63.8942094 99.6288076 63.5857781 98.7425107 63.3455726 97.7865534 63.1735857 96.8305961 63.0015987 95.771414 62.9030781 94.6089754 62.8780209 93.4465369 62.8529637 92.1262796 62.9557728 90.648164 63.1864514 88.251825 63.5604302 86.1479857 64.3016953 84.3365831 65.4102688 82.5251805 66.5188424 81.0535195 67.9299651 79.9215559 69.6436793 78.7895924 71.3573935 78.0183644 73.3244882 77.6078487 75.5450224 77.1973331 77.7655567 77.1947928 80.1747378 77.6002278 82.772638 78.0371189 85.5720994 78.8178649 88.0024188 79.9424892 90.0636692 81.0671135 92.1249196 82.451956 93.7956788 84.0970582 95.0759969 85.7421604 96.3563151 87.6009347 97.2419463 89.6734369 97.7329171 91.7459392 98.2238879 93.9355355 98.2893732 96.2422917 97.9293749zM164.435256 96.2731633L155.292724 97.418545 152.621575 76.097215 129.748376 78.9627825 132.419525 100.284112 123.276993 101.429494 117.165472 52.6468311 126.308005 51.5014494 128.936888 72.4854165 151.810087 69.619849 149.181204 48.6358819 158.323736 47.4905002 164.435256 96.2731633zM203.871455 43.8052349L204.578165 51.2859272 189.853725 52.6769617 193.771006 94.1423377 184.665548 95.0025406 180.748267 53.5371646 165.956129 54.9345945 165.249419 47.4539022 203.871455 43.8052349zM258.15033 40.8185178L258.617391 48.3179878 243.855991 49.2373159 246.444903 90.8067763 237.316589 91.3752803 234.727676 49.80582 219.898408 50.7293749 219.431347 43.2299049 258.15033 40.8185178zM310.161451 63.8834752C310.30073 67.484801 309.829502 70.8431539 308.747754 73.9586346 307.666006 77.0741153 306.081324 79.7950288 303.993659 82.1214568 301.905995 84.4478847 299.357644 86.2987321 296.348531 87.6740545 293.339418 89.0493769 289.977624 89.8088562 286.263049 89.9525152 282.548474 90.0961742 279.132403 89.5988247 276.014732 88.4604521 272.897062 87.3220794 270.202051 85.6740158 267.92962 83.5162119 265.657189 81.3584081 263.861432 78.768231 262.542296 75.745603 261.223161 72.7229751 260.493964 69.4110479 260.354685 65.8097221 260.215406 62.2083964 260.686633 58.8500435 261.768381 55.7345628 262.850129 52.6190821 264.440474 49.8979496 266.539464 47.5710836 268.638453 45.2442177 271.198128 43.3929323 274.218566 42.0171719 277.239004 40.6414115 280.60646 39.8817132 284.321035 39.7380543 288.03561 39.5943953 291.446238 40.0976261 294.553022 41.2477617 297.659806 42.3978973 300.343492 44.0463988 302.60416 46.1933158 304.864828 48.3402327 306.654703 50.9249664 307.973839 53.9475943 309.292975 56.9702223 310.022171 60.2821495 310.161451 63.8834752zM300.784461 64.2461247C300.68022 61.5507929 300.229982 59.1467542 299.433733 57.0339367 298.637484 54.9211191 297.542298 53.1431331 296.148143 51.6999254 294.753988 50.2567176 293.08465 49.1757673 291.140079 48.4570421 289.195508 47.7383168 287.022813 47.4253853 284.621929 47.518238 282.221045 47.6110907 280.073347 48.091111 278.178768 48.958313 276.28419 49.8255151 274.691999 51.032603 273.402147 52.5796131 272.112295 54.1266233 271.146376 55.9843213 270.50436 58.1527629 269.862344 60.3212045 269.59346 62.7530547 269.6977 65.4483866 269.801941 68.1437184 270.257841 70.5475381 271.065415 72.6599177 271.87299 74.7722972 272.979281 76.5441829 274.384323 77.9756277 275.789365 79.4070726 277.469809 80.4819225 279.425705 81.2002098 281.381601 81.918497 283.559958 82.2312096 285.960842 82.1383569 288.361725 82.0455041 290.503762 81.5657029 292.387015 80.6989388 294.270268 79.8321748 295.851354 78.6311871 297.130319 77.0959399 298.409284 75.5606927 299.364097 73.7090951 299.994788 71.5410915 300.62548 69.3730878 300.888701 66.9414566 300.784461 64.2461247zM330.675246 89.3823771L330.970478 40.2192635 347.936172 40.3211452C351.154797 40.3404735 353.901215 40.6629687 356.175511 41.2886403 358.449806 41.9143119 360.314513 42.7981834 361.769688 43.9402814 363.224863 45.0823794 364.287599 46.4601056 364.957926 48.0735014 365.628253 49.6868973 365.957354 51.5022215 365.94524 53.5195285 365.938298 54.6755134 365.761667 55.7794616 365.415342 56.8314062 365.069017 57.8833507 364.536111 58.8661584 363.816608 59.7798588 363.097104 60.6935592 362.185461 61.5210914 361.08165 62.26248 359.977839 63.0038687 358.665065 63.6306571 357.143287 64.1428639 363.888746 65.7020731 367.244071 69.371585 367.209361 75.1515096 367.196839 77.2368158 366.788614 79.1610465 365.984674 80.9242594 365.180734 82.6874724 364.015612 84.2048212 362.489275 85.4763515 360.962938 86.7478817 359.086967 87.7396243 356.861307 88.4516089 354.635647 89.1635935 352.094874 89.5110053 349.238911 89.4938548L330.675246 89.3823771zM339.950526 67.8816879L339.863957 82.297428 349.145789 82.3531669C350.845767 82.3633755 352.269286 82.1679223 353.416388 81.7668014 354.563489 81.3656806 355.48473 80.8272084 356.180138 80.1513688 356.875546 79.4755291 357.378963 78.6852125 357.690403 77.7803952 358.001844 76.8755779 358.160624 75.9131904 358.166749 74.8932037 358.173147 73.8278842 358.008902 72.8692235 357.674011 72.0171929 357.33912 71.1651622 356.810824 70.4366506 356.089107 69.8316361 355.36739 69.2266215 354.440839 68.7620538 353.309426 68.4379188 352.178013 68.1137839 350.807671 67.9468868 349.198359 67.9372226L339.950526 67.8816879zM339.988501 61.557802L347.29837 61.6016989C350.403663 61.6203466 352.764333 61.0678516 354.380451 59.9441972 355.996569 58.8205428 356.812034 57.0234253 356.82687 54.5527909 356.842251 51.9914909 356.127896 50.1625198 354.683781 49.0658226 353.239667 47.9691254 350.976331 47.4115293 347.893704 47.3930177L340.073845 47.3460582 339.988501 61.557802zM384.689267 71.5723521L384.013289 90.770455 374.872953 90.4486176 376.602979 41.3150658 391.587692 41.8426877C394.940298 41.9607353 397.799327 42.407281 400.164864 43.1823384 402.530401 43.9573957 404.455736 44.9947789 405.940927 46.2945189 407.426118 47.594259 408.494969 49.1231359 409.147513 50.8811957 409.800056 52.6392554 410.089633 54.5602826 410.016252 56.6443349 409.958026 58.2979851 409.659478 59.8524265 409.120599 61.307706 408.58172 62.7629854 407.832437 64.0747513 406.872727 65.2430431 405.913017 66.4113349 404.743308 67.4247913 403.363565 68.2834427 401.983822 69.1420941 400.423599 69.8129331 398.682847 70.2959799 399.815006 70.993588 400.778611 71.9687573 401.573691 73.2215173L413.23518 91.7993775 405.012276 91.5098435C404.21943 91.4819269 403.551104 91.2996313 403.007278 90.9629512 402.463453 90.6262712 402.009368 90.1566728 401.645009 89.554142L391.869354 73.4581792C391.504995 72.8556484 391.095018 72.4216238 390.639411 72.1560925 390.183803 71.8905611 389.502955 71.7418453 388.596845 71.7099406L384.689267 71.5723521zM384.920176 65.0144161L390.628639 65.2154149C392.350247 65.2760339 393.858546 65.1136775 395.153581 64.7283409 396.448615 64.3430042 397.522889 63.7854673 398.376434 63.0557135 399.22998 62.3259598 399.878963 61.4472615 400.323402 60.4195925 400.767842 59.3919235 401.011993 58.2551557 401.055862 57.0092549 401.1436 54.5174533 400.389848 52.574412 398.794584 51.1800729 397.19932 49.7857338 394.714095 49.029153 391.338837 48.9103079L385.494459 48.7045234 384.920176 65.0144161zM452.688383 45.6349696L452.22999 52.8965157 430.479284 51.5234789 429.620333 65.1303948 446.756224 66.2121164 446.312825 73.2361353 429.176934 72.1544137 428.300847 86.0327892 450.051552 87.405826 449.591017 94.7013046 418.644615 92.7477795 421.741981 43.6814445 452.688383 45.6349696zM500.104534 99.4752141L493.058958 98.8644421C492.268585 98.7959257 491.636488 98.5420549 491.162649 98.1028221 490.688811 97.6635893 490.364435 97.1406255 490.189512 96.5339151L487.397471 86.2242598 467.107567 84.465354 462.583048 94.140746C462.357366 94.6444731 461.960594 95.0878579 461.392721 95.4709137 460.824847 95.8539695 460.157025 96.0122156 459.389234 95.9456568L452.309785 95.3319484 475.795667 48.0195231 485.110731 48.8270342 500.104534 99.4752141zM470.002718 78.2321031L485.618153 79.5857852 481.068922 62.7760836C480.860581 62.0299655 480.635271 61.1515665 480.392987 60.1408603 480.150703 59.1301541 479.921409 58.0352709 479.705098 56.8561779 479.289111 57.9804578 478.885626 59.0261741 478.494633 59.9933582 478.10364 60.9605422 477.729065 61.8040016 477.370897 62.5237615L470.002718 78.2321031zM539.630523 55.1383167L538.79023 62.6051838 524.093003 60.9512138 519.435271 102.339957 510.346641 101.317157 515.004373 59.928414 500.239572 58.2668396 501.079865 50.7999725 539.630523 55.1383167zM580.534705 110.825203L571.405981 109.57453 574.322679 88.2854009 551.484025 85.156411 548.567327 106.44554 539.438602 105.194867 546.111934 56.4858789 555.240659 57.7365518 552.370111 78.6888275 575.208765 81.8178174 578.079313 60.8655417 587.208038 62.1162146 580.534705 110.825203zM628.676046 69.853858L627.450887 77.0259679 605.968072 73.3562153 603.672329 86.7955427 620.597168 89.6866896 619.412084 96.6241978 602.487245 93.7330509 600.145703 107.440495 621.628518 111.110247 620.397634 118.315872 589.83238 113.094632 598.110793 64.6326186 628.676046 69.853858zM229.004.648L229.004 3.216 221.312 3.216 221.312 8.028 227.372 8.028 227.372 10.512 221.312 10.512 221.312 15.42 229.004 15.42 229.004 18 218.06 18 218.06.648 229.004.648zM230.096.648L232.7.648C232.980001.648 233.207999.71599932 233.384.852 233.560001.98800068 233.692 1.16399892 233.78 1.38L237.86 11.964C237.996001 12.3080017 238.125999 12.6859979 238.25 13.098 238.374001 13.5100021 238.491999 13.9439977 238.604 14.4 238.788001 13.4799954 239.015999 12.6680035 239.288 11.964L243.356 1.38C243.428 1.19599908 243.555999 1.02800076 243.74.876 243.924001.72399924 244.151999.648 244.424.648L247.028.648 240.02 18 237.104 18 230.096.648zM259.784.648L259.784 3.216 252.092 3.216 252.092 8.028 258.152 8.028 258.152 10.512 252.092 10.512 252.092 15.42 259.784 15.42 259.784 18 248.84 18 248.84.648 259.784.648zM265.916 11.22L265.916 18 262.688 18 262.688.648 267.98.648C269.164006.648 270.177996.76999878 271.022 1.014 271.866004 1.25800122 272.557997 1.5999978 273.098 2.04 273.638003 2.4800022 274.033999 3.00599694 274.286 3.618 274.538001 4.23000306 274.664 4.90399632 274.664 5.64 274.664 6.22400292 274.578001 6.7759974 274.406 7.296 274.233999 7.8160026 273.986002 8.28799788 273.662 8.712 273.337998 9.13600212 272.938002 9.5079984 272.462 9.828 271.985998 10.1480016 271.444003 10.403999 270.836 10.596 271.244002 10.8280012 271.595999 11.1599978 271.892 11.592L276.236 18 273.332 18C273.051999 18 272.814001 17.9440006 272.618 17.832 272.421999 17.7199994 272.256001 17.560001 272.12 17.352L268.472 11.796C268.335999 11.587999 268.186001 11.4400004 268.022 11.352 267.857999 11.2639996 267.616002 11.22 267.296 11.22L265.916 11.22zM265.916 8.904L267.932 8.904C268.540003 8.904 269.069998 8.82800076 269.522 8.676 269.974002 8.52399924 270.345999 8.31400134 270.638 8.046 270.930001 7.77799866 271.147999 7.46000184 271.292 7.092 271.436001 6.72399816 271.508 6.3200022 271.508 5.88 271.508 4.9999956 271.218003 4.32400236 270.638 3.852 270.057997 3.37999764 269.172006 3.144 267.98 3.144L265.916 3.144 265.916 8.904zM286.016 11.256L286.016 18 282.788 18 282.788 11.256 276.464.648 279.308.648C279.588001.648 279.809999.71599932 279.974.852 280.138001.98800068 280.275999 1.15999896 280.388 1.368L283.568 7.164C283.752001 7.50800172 283.911999 7.83399846 284.048 8.142 284.184001 8.45000154 284.307999 8.75199852 284.42 9.048 284.524001 8.74399848 284.641999 8.43800154 284.774 8.13 284.906001 7.82199846 285.063999 7.50000168 285.248 7.164L288.404 1.368C288.492 1.19199912 288.623999 1.02800076 288.8.876 288.976001.72399924 289.199999.648 289.472.648L292.328.648 286.016 11.256zM310.652 9.324C310.652 10.5960064 310.440002 11.7739946 310.016 12.858 309.591998 13.9420054 308.996004 14.879996 308.228 15.672 307.459996 16.464004 306.536005 17.0819978 305.456 17.526 304.375995 17.9700022 303.180007 18.192 301.868 18.192 300.555993 18.192 299.358005 17.9700022 298.274 17.526 297.189995 17.0819978 296.262004 16.464004 295.49 15.672 294.717996 14.879996 294.120002 13.9420054 293.696 12.858 293.271998 11.7739946 293.06 10.5960064 293.06 9.324 293.06 8.05199364 293.271998 6.87400542 293.696 5.79 294.120002 4.70599458 294.717996 3.76800396 295.49 2.976 296.262004 2.18399604 297.189995 1.56600222 298.274 1.122 299.358005.67799778 300.555993.456 301.868.456 303.180007.456 304.375995.67999776 305.456 1.128 306.536005 1.57600224 307.459996 2.19399606 308.228 2.982 308.996004 3.77000394 309.591998 4.70599458 310.016 5.79 310.440002 6.87400542 310.652 8.05199364 310.652 9.324zM307.34 9.324C307.34 8.37199524 307.214001 7.51800378 306.962 6.762 306.709999 6.00599622 306.348002 5.36400264 305.876 4.836 305.403998 4.30799736 304.830003 3.9040014 304.154 3.624 303.477997 3.3439986 302.716004 3.204 301.868 3.204 301.019996 3.204 300.256003 3.3439986 299.576 3.624 298.895997 3.9040014 298.318002 4.30799736 297.842 4.836 297.365998 5.36400264 297.000001 6.00599622 296.744 6.762 296.487999 7.51800378 296.36 8.37199524 296.36 9.324 296.36 10.2760048 296.487999 11.1299962 296.744 11.886 297.000001 12.6420038 297.365998 13.2819974 297.842 13.806 298.318002 14.3300026 298.895997 14.7319986 299.576 15.012 300.256003 15.2920014 301.019996 15.432 301.868 15.432 302.716004 15.432 303.477997 15.2920014 304.154 15.012 304.830003 14.7319986 305.403998 14.3300026 305.876 13.806 306.348002 13.2819974 306.709999 12.6420038 306.962 11.886 307.214001 11.1299962 307.34 10.2760048 307.34 9.324zM314.888.648C315.032001.648 315.152.65399994 315.248.666 315.344.67800006 315.43.70199982 315.506.738 315.582.77400018 315.656.82599966 315.728.894 315.8.96200034 315.88 1.05199944 315.968 1.164L325.076 12.768C325.044 12.4879986 325.022 12.2140013 325.01 11.946 324.998 11.6779987 324.992 11.4280012 324.992 11.196L324.992.648 327.836.648 327.836 18 326.168 18C325.911999 18 325.700001 17.9600004 325.532 17.88 325.363999 17.7999996 325.200001 17.656001 325.04 17.448L315.968 5.892C315.992 6.14800128 316.01 6.40199874 316.022 6.654 316.034 6.90600126 316.04 7.13599896 316.04 7.344L316.04 18 313.196 18 313.196.648 314.888.648zM342.284.648L342.284 3.216 334.592 3.216 334.592 8.028 340.652 8.028 340.652 10.512 334.592 10.512 334.592 15.42 342.284 15.42 342.284 18 331.34 18 331.34.648 342.284.648zM364.352 18L361.1 18 361.1 10.416 352.964 10.416 352.964 18 349.712 18 349.712.648 352.964.648 352.964 8.112 361.1 8.112 361.1.648 364.352.648 364.352 18zM383.108 18L380.612 18C380.331999 18 380.102001 17.9300007 379.922 17.79 379.741999 17.6499993 379.612 17.476001 379.532 17.268L378.236 13.728 371.048 13.728 369.752 17.268C369.688 17.4520009 369.562001 17.6199992 369.374 17.772 369.185999 17.9240008 368.956001 18 368.684 18L366.176 18 372.992.648 376.292.648 383.108 18zM371.876 11.448L377.408 11.448 375.296 5.676C375.2 5.41999872 375.094001 5.11800174 374.978 4.77 374.861999 4.42199826 374.748001 4.04400204 374.636 3.636 374.523999 4.04400204 374.414001 4.42399824 374.306 4.776 374.197999 5.12800176 374.092001 5.43599868 373.988 5.7L371.876 11.448zM394.196 3.804C394.108 3.98000088 394.006001 4.10399964 393.89 4.176 393.773999 4.24800036 393.636001 4.284 393.476 4.284 393.315999 4.284 393.136001 4.22200062 392.936 4.098 392.735999 3.97399938 392.500001 3.83600076 392.228 3.684 391.955999 3.53199924 391.638002 3.39400062 391.274 3.27 390.909998 3.14599938 390.480002 3.084 389.984 3.084 389.535998 3.084 389.146002 3.13799946 388.814 3.246 388.481998 3.35400054 388.202001 3.50399904 387.974 3.696 387.745999 3.88800096 387.576001 4.11799866 387.464 4.386 387.351999 4.65400134 387.296 4.9479984 387.296 5.268 387.296 5.67600204 387.409999 6.01599864 387.638 6.288 387.866001 6.56000136 388.167998 6.79199904 388.544 6.984 388.920002 7.17600096 389.347998 7.34799924 389.828 7.5 390.308002 7.65200076 390.797997 7.81399914 391.298 7.986 391.798002 8.15800086 392.287998 8.35799886 392.768 8.586 393.248002 8.81400114 393.675998 9.10199826 394.052 9.45 394.428002 9.79800174 394.729999 10.2239975 394.958 10.728 395.186001 11.2320025 395.3 11.8439964 395.3 12.564 395.3 13.3480039 395.166001 14.0819966 394.898 14.766 394.629999 15.4500034 394.238003 16.0459975 393.722 16.554 393.205997 17.0620025 392.576004 17.4619985 391.832 17.754 391.087996 18.0460015 390.236005 18.192 389.276 18.192 388.723997 18.192 388.180003 18.1380005 387.644 18.03 387.107997 17.9219995 386.594002 17.768001 386.102 17.568 385.609998 17.367999 385.150002 17.1280014 384.722 16.848 384.293998 16.5679986 383.912002 16.2560017 383.576 15.912L384.512 14.364C384.6 14.2519994 384.705999 14.1580004 384.83 14.082 384.954001 14.0059996 385.091999 13.968 385.244 13.968 385.444001 13.968 385.659999 14.0499992 385.892 14.214 386.124001 14.3780008 386.397998 14.559999 386.714 14.76 387.030002 14.960001 387.401998 15.1419992 387.83 15.306 388.258002 15.4700008 388.771997 15.552 389.372 15.552 390.292005 15.552 391.003997 15.3340022 391.508 14.898 392.012003 14.4619978 392.264 13.8360041 392.264 13.02 392.264 12.5639977 392.150001 12.1920014 391.922 11.904 391.693999 11.6159986 391.392002 11.374001 391.016 11.178 390.639998 10.981999 390.212002 10.8160007 389.732 10.68 389.251998 10.5439993 388.764002 10.3960008 388.268 10.236 387.771998 10.0759992 387.284002 9.88400112 386.804 9.66 386.323998 9.43599888 385.896002 9.1440018 385.52 8.784 385.143998 8.4239982 384.842001 7.9740027 384.614 7.434 384.385999 6.8939973 384.272 6.22800396 384.272 5.436 384.272 4.80399684 384.397999 4.188003 384.65 3.588 384.902001 2.987997 385.269998 2.45600232 385.754 1.992 386.238002 1.52799768 386.831996 1.1560014 387.536.876 388.240004.5959986 389.043995.456 389.948.456 390.972005.456 391.915996.6159984 392.78.936 393.644004 1.2560016 394.379997 1.70399712 394.988 2.28L394.196 3.804zM417.656 18L415.16 18C414.879999 18 414.650001 17.9300007 414.47 17.79 414.289999 17.6499993 414.16 17.476001 414.08 17.268L412.784 13.728 405.596 13.728 404.3 17.268C404.236 17.4520009 404.110001 17.6199992 403.922 17.772 403.733999 17.9240008 403.504001 18 403.232 18L400.724 18 407.54.648 410.84.648 417.656 18zM406.424 11.448L411.956 11.448 409.844 5.676C409.748 5.41999872 409.642001 5.11800174 409.526 4.77 409.409999 4.42199826 409.296001 4.04400204 409.184 3.636 409.071999 4.04400204 408.962001 4.42399824 408.854 4.776 408.745999 5.12800176 408.640001 5.43599868 408.536 5.7L406.424 11.448z"/>
  </g>
</svg>
